<svg width="67" height="78" viewBox="0 0 67 78" fill="none" xmlns="http://www.w3.org/2000/svg">
<path d="M31.9943 37.2833C23.2979 35.0217 20.5012 32.6833 20.5012 29.0417C20.5012 24.8633 24.3705 21.95 30.845 21.95C37.6643 21.95 40.1927 25.2083 40.4226 30M11.6898 29.1183C11.6898 21.72 17.6662 16.89 25.0984 15.28V7H36.5916V15.395C41.3604 16.5594 44.7159 19.1788 46.7066 22.5M29.6957 44.95C29.0962 44.8059 28.5073 44.6561 27.9296 44.5M50.0002 54.15C50.0002 62.0083 44.0621 66.34 36.5916 67.7583V76H25.0984V67.6817C18.8357 66.3435 13.3506 62.7267 11.5752 56.5" stroke="white" stroke-width="3"/>
<mask id="path-2-inside-1_1_500" fill="white">
<path fill-rule="evenodd" clip-rule="evenodd" d="M31.1265 67.4334L66.5081 27.2697L57.1041 18.9854L29.8358 49.9393L8.28437 30.9539L6.63468e-05 40.3579L30.9549 67.627L31.1259 67.4329L31.1265 67.4334Z"/>
</mask>
<path d="M66.5081 27.2697L68.7592 29.2527L70.7423 27.0016L68.4912 25.0186L66.5081 27.2697ZM31.1265 67.4334L29.1434 69.6845L31.3945 71.6676L33.3776 69.4165L31.1265 67.4334ZM57.1041 18.9854L59.0872 16.7343L56.8361 14.7512L54.853 17.0023L57.1041 18.9854ZM29.8358 49.9393L27.8527 52.1904L30.1038 54.1734L32.0869 51.9223L29.8358 49.9393ZM8.28437 30.9539L10.2674 28.7028L8.01634 26.7197L6.03327 28.9708L8.28437 30.9539ZM6.63468e-05 40.3579L-2.25103 38.3748L-4.2341 40.6259L-1.983 42.609L6.63468e-05 40.3579ZM30.9549 67.627L28.9718 69.8781L31.2229 71.8612L33.206 69.6101L30.9549 67.627ZM31.1259 67.4329L33.109 65.1818L30.8579 63.1987L28.8748 65.4498L31.1259 67.4329ZM64.257 25.2866L28.8754 65.4503L33.3776 69.4165L68.7592 29.2527L64.257 25.2866ZM55.1211 21.2365L64.525 29.5208L68.4912 25.0186L59.0872 16.7343L55.1211 21.2365ZM32.0869 51.9223L59.3552 20.9684L54.853 17.0023L27.5847 47.9562L32.0869 51.9223ZM6.3013 33.205L27.8527 52.1904L31.8188 47.6882L10.2674 28.7028L6.3013 33.205ZM2.25116 42.341L10.5355 32.937L6.03327 28.9708L-2.25103 38.3748L2.25116 42.341ZM32.9379 65.376L1.98314 38.1068L-1.983 42.609L28.9718 69.8781L32.9379 65.376ZM28.8748 65.4498L28.7038 65.644L33.206 69.6101L33.377 69.4159L28.8748 65.4498ZM33.1096 65.1823L33.109 65.1818L29.1429 69.684L29.1434 69.6845L33.1096 65.1823Z" fill="white" mask="url(#path-2-inside-1_1_500)"/>
</svg>