<svg width="121" height="66" viewBox="0 0 121 66" fill="none" xmlns="http://www.w3.org/2000/svg">
<path d="M37.2869 39.7475L37.0705 39.6559L36.8619 39.7641C36.2487 40.0823 35.5299 40.3824 34.7231 40.6588L34.8851 41.1319C33.5269 41.5972 31.9453 41.9896 30.2311 42.2896L30.1449 41.7971C28.6575 42.0574 27.0672 42.2476 25.4353 42.3542L25.4679 42.8532C23.8888 42.9563 22.2722 42.982 20.6721 42.9187L20.6919 42.4191C19.0842 42.3554 17.4965 42.2009 15.9846 41.9443L15.901 42.4373C14.2477 42.1567 12.6798 41.7554 11.2679 41.2181L11.4457 40.7508C10.6911 40.4637 9.9865 40.1382 9.34211 39.773L9.17749 39.6797L8.99235 39.7187C8.03535 39.9206 7.23469 40.1457 6.56939 40.3939L6.74415 40.8623C4.25591 41.7906 3.90292 43.0015 4.207 44.371L3.71889 44.4794C3.85505 45.0926 4.11503 45.7386 4.36359 46.3562C4.42261 46.5028 4.481 46.6479 4.53693 46.7905C4.83986 47.5632 5.08762 48.2997 5.12464 49.0222L5.62398 48.9966C5.69058 50.2963 5.15452 51.6168 3.16845 52.8867L2.89909 52.4654C2.33931 52.8234 1.64984 53.1825 0.80536 53.5394L1 54.5H3.625V54H8.875V54.5H14.125V54H19.375V54.5H24.625V54H29.875V54.5H35.125V54H40.375V54.5H43H43.568L43.496 53.9366C43.4139 53.2948 43.3551 52.6382 43.3031 51.971L42.8046 52.0099C42.7817 51.7166 42.7603 51.4225 42.7388 51.1284C42.6627 50.0852 42.5865 49.041 42.4475 48.0267L42.9429 47.9588C42.7532 46.5738 42.4446 45.2108 41.8502 43.9675L41.3991 44.1832C40.8482 43.031 40.0446 42.0017 38.8468 41.1655L39.133 40.7555C38.5924 40.3781 37.9801 40.0406 37.2869 39.7475ZM37.4826 23.1669L36.9863 23.2282C36.8423 22.0635 36.5543 20.9432 36.1405 19.8856L36.6062 19.7034C36.3876 19.1448 36.1352 18.603 35.8515 18.0807C35.5407 17.5084 35.1922 16.9594 34.8095 16.4371L34.4062 16.7326C33.6645 15.7202 32.7893 14.8112 31.8065 14.0312L32.1173 13.6396C31.1064 12.8373 29.9854 12.1668 28.7804 11.6541L28.5847 12.1142C27.4487 11.631 26.2356 11.2931 24.9689 11.1241L25.035 10.6285C24.3998 10.5437 23.7519 10.5 23.0939 10.5C22.436 10.5 21.788 10.5437 21.1529 10.6285L21.219 11.1241C19.9523 11.2931 18.7391 11.631 17.6032 12.1142L17.4075 11.6541C16.2024 12.1668 15.0814 12.8373 14.0706 13.6396L14.3814 14.0312C13.3986 14.8112 12.5234 15.7202 11.7817 16.7326L11.3783 16.4371C10.9956 16.9594 10.6472 17.5084 10.3363 18.0807C10.1641 18.3978 10.164 18.7282 10.2888 19.0271C10.402 19.2985 10.6088 19.5243 10.8189 19.7089C11.1887 20.0337 11.7117 20.3486 12.194 20.639C12.2558 20.6762 12.3169 20.713 12.377 20.7493L12.636 20.3217C14.3217 21.3425 15.9274 22.4499 11.9195 24.0287L11.7363 23.5635C11.0176 23.8467 10.1048 24.1486 8.96005 24.4712C8.06994 24.722 7.33108 25.0208 6.73544 25.3656L6.98595 25.7984C5.24939 26.8037 4.98068 28.1485 5.66276 29.5943L5.21055 29.8076C5.77656 31.0074 6.91233 32.2211 8.32384 33.3497L8.63608 32.9591C9.73239 33.8357 11.0294 34.6833 12.4155 35.4508L12.1734 35.8882C13.5099 36.6282 14.928 37.2945 16.3316 37.8429L16.5135 37.3772C18.0176 37.9648 19.5038 38.4144 20.8487 38.6691L20.7557 39.1604C21.5862 39.3177 22.3756 39.4049 23.0939 39.4049C24.0599 39.4049 25.0043 39.3107 25.9182 39.1308L25.8216 38.6402C27.6561 38.2791 29.3619 37.5607 30.8628 36.5607L31.14 36.9768C32.7217 35.9231 34.0837 34.5676 35.1433 32.9926L34.7285 32.7135C35.7363 31.2155 36.4606 29.5122 36.8249 27.6798L37.3153 27.7772C37.497 26.8633 37.5922 25.9187 37.5922 24.9525C37.5922 24.3481 37.5549 23.7522 37.4826 23.1669Z" stroke="white" stroke-dasharray="5 5"/>
<path d="M113.287 39.7475L113.07 39.6559L112.862 39.7641C112.249 40.0823 111.53 40.3824 110.723 40.6588L110.885 41.1319C109.527 41.5972 107.945 41.9896 106.231 42.2896L106.145 41.7971C104.658 42.0574 103.067 42.2476 101.435 42.3542L101.468 42.8532C99.8888 42.9563 98.2722 42.982 96.6721 42.9187L96.6919 42.4191C95.0842 42.3554 93.4965 42.2009 91.9846 41.9443L91.901 42.4373C90.2477 42.1567 88.6798 41.7554 87.2679 41.2181L87.4457 40.7508C86.6911 40.4637 85.9865 40.1382 85.3421 39.773L85.1775 39.6797L84.9924 39.7187C84.0354 39.9206 83.2347 40.1457 82.5694 40.3939L82.7442 40.8623C80.2559 41.7906 79.9029 43.0015 80.207 44.371L79.7189 44.4794C79.855 45.0926 80.115 45.7386 80.3636 46.3562C80.4226 46.5028 80.481 46.6479 80.5369 46.7905C80.8399 47.5632 81.0876 48.2997 81.1246 49.0222L81.624 48.9966C81.6906 50.2963 81.1545 51.6168 79.1684 52.8867L78.8991 52.4654C78.3393 52.8234 77.6498 53.1825 76.8054 53.5394L77 54.5H79.625V54H84.875V54.5H90.125V54H95.375V54.5H100.625V54H105.875V54.5H111.125V54H116.375V54.5H119H119.568L119.496 53.9366C119.414 53.2948 119.355 52.6382 119.303 51.971L118.805 52.0099C118.782 51.7166 118.76 51.4225 118.739 51.1284C118.663 50.0852 118.587 49.041 118.448 48.0267L118.943 47.9588C118.753 46.5738 118.445 45.2108 117.85 43.9675L117.399 44.1832C116.848 43.031 116.045 42.0017 114.847 41.1655L115.133 40.7555C114.592 40.3781 113.98 40.0406 113.287 39.7475ZM113.483 23.1669L112.986 23.2282C112.842 22.0635 112.554 20.9432 112.141 19.8856L112.606 19.7034C112.388 19.1448 112.135 18.603 111.852 18.0807C111.541 17.5084 111.192 16.9594 110.81 16.4371L110.406 16.7326C109.664 15.7202 108.789 14.8112 107.806 14.0312L108.117 13.6396C107.106 12.8373 105.985 12.1668 104.78 11.6541L104.585 12.1142C103.449 11.631 102.236 11.2931 100.969 11.1241L101.035 10.6285C100.4 10.5437 99.7519 10.5 99.0939 10.5C98.436 10.5 97.788 10.5437 97.1529 10.6285L97.219 11.1241C95.9523 11.2931 94.7391 11.631 93.6032 12.1142L93.4075 11.6541C92.2024 12.1668 91.0814 12.8373 90.0706 13.6396L90.3814 14.0312C89.3986 14.8112 88.5234 15.7202 87.7817 16.7326L87.3783 16.4371C86.9956 16.9594 86.6472 17.5084 86.3363 18.0807C86.1641 18.3978 86.164 18.7282 86.2888 19.0271C86.402 19.2985 86.6088 19.5243 86.8189 19.7089C87.1887 20.0337 87.7117 20.3486 88.194 20.639C88.2558 20.6762 88.3169 20.713 88.377 20.7493L88.636 20.3217C90.3217 21.3425 91.9274 22.4499 87.9195 24.0287L87.7363 23.5635C87.0176 23.8467 86.1048 24.1486 84.96 24.4712C84.0699 24.722 83.3311 25.0208 82.7354 25.3656L82.9859 25.7984C81.2494 26.8037 80.9807 28.1485 81.6628 29.5943L81.2106 29.8076C81.7766 31.0074 82.9123 32.2211 84.3238 33.3497L84.6361 32.9591C85.7324 33.8357 87.0294 34.6833 88.4155 35.4508L88.1734 35.8882C89.5099 36.6282 90.928 37.2945 92.3316 37.8429L92.5135 37.3772C94.0176 37.9648 95.5038 38.4144 96.8487 38.6691L96.7557 39.1604C97.5862 39.3177 98.3756 39.4049 99.0939 39.4049C100.06 39.4049 101.004 39.3107 101.918 39.1308L101.822 38.6402C103.656 38.2791 105.362 37.5607 106.863 36.5607L107.14 36.9768C108.722 35.9231 110.084 34.5676 111.143 32.9926L110.728 32.7135C111.736 31.2155 112.461 29.5122 112.825 27.6798L113.315 27.7772C113.497 26.8633 113.592 25.9187 113.592 24.9525C113.592 24.3481 113.555 23.7522 113.483 23.1669Z" stroke="white" stroke-dasharray="5 5"/>
<path d="M84.3569 21.4154C84.3569 32.3981 75.3456 41.3308 64.193 41.3308C61.4821 41.3308 57.726 40.3833 53.8167 38.7959C49.933 37.2188 46.0498 35.0721 43.1007 32.8034C41.6256 31.6687 40.4211 30.5316 39.5682 29.4521C38.7029 28.3566 38.2825 27.4254 38.1973 26.6915C38.1219 26.0426 38.2906 25.4431 38.9067 24.8298C39.5806 24.159 40.8239 23.4495 42.9328 22.8601C45.198 22.227 46.9564 21.6266 48.291 21.0468C49.6009 20.4777 50.6142 19.8819 51.2877 19.2075C52.0047 18.4894 52.4447 17.553 52.2195 16.4908C52.0254 15.5755 51.3933 14.9031 50.876 14.4562C50.3274 13.9822 49.661 13.5567 49.0603 13.1909C48.8508 13.0633 48.6511 12.944 48.4595 12.8295C48.0618 12.5918 47.6993 12.3752 47.3571 12.1495C47.0142 11.9233 46.7836 11.745 46.6373 11.6112C50.1003 5.57607 56.6619 1.5 64.193 1.5C71.8661 1.5 78.5328 5.73131 81.9413 11.9548C83.4821 14.7682 84.3569 17.9889 84.3569 21.4154ZM46.4596 11.4176C46.4596 11.4176 46.4602 11.4185 46.4611 11.4202C46.46 11.4185 46.4596 11.4176 46.4596 11.4176ZM37.9674 47.8887C38.8907 47.377 40.2726 46.8716 42.3012 46.4151C48.3772 49.6294 56.9899 50.7344 65.1154 50.518C73.11 50.3051 80.971 48.8027 85.8889 46.4866C89.6548 48.2639 91.2913 51.0038 92.1319 54.2747C92.5865 56.0437 92.8037 57.9629 92.9698 59.9966C93.0142 60.5413 93.0552 61.0984 93.0967 61.6624C93.1656 62.5983 93.2358 63.5528 93.3256 64.5H35.627C37.1448 63.2468 38.0484 61.8863 38.4407 60.4001C39.1129 57.8536 38.1141 55.3909 37.3791 53.5785C37.3652 53.5443 37.3515 53.5103 37.3378 53.4766L37.3309 53.4596C36.932 52.475 36.6062 51.6712 36.4353 50.9296C36.2686 50.2061 36.2923 49.7086 36.452 49.317C36.607 48.9373 36.9811 48.4352 37.9674 47.8887Z" stroke="white" stroke-width="3"/>
</svg>