<svg width="62" height="108" viewBox="0 0 62 108" fill="none" xmlns="http://www.w3.org/2000/svg">
<path d="M21.9267 52C-3.57266 71.3078 -8.91612 107.018 31.7701 100.644M18.3641 73.7447C19.1135 74.7041 20.0661 75.6101 21.1765 76.4543M20.614 61.3727C26.307 71.2733 35.7593 73.1928 43.5645 73.7447M21.1765 76.4543L16.2079 88.085M21.1765 76.4543C24.2749 78.8097 28.6024 80.6842 33.1761 81.8965M33.1761 81.8965C37.2532 96.6133 38.929 108.58 45.9256 105.518C47.5408 104.743 48.5185 103.668 49.037 102.332M33.1761 81.8965C37.4811 83.0377 42.0042 83.5922 45.9256 83.4092M45.9256 83.4092C50.2367 83.208 53.8206 82.1154 55.5883 79.9307M45.9256 83.4092C47.8305 91.506 50.6467 98.1817 49.037 102.332M55.5883 79.9307C56.1725 79.2088 56.5583 78.3677 56.7065 77.4001C56.8303 75.9154 56.0206 75.1107 54.5503 74.6521M55.5883 79.9307C63.2688 103.175 60.8185 111.435 49.037 102.332M54.5503 74.6521C53.0478 67.1453 48.8126 64.3619 39.0821 63.7873M54.5503 74.6521C52.2025 73.9199 48.1703 74.0704 43.5645 73.7447M28.4888 63.8096C32.5909 63.6426 36.0954 63.6109 39.0821 63.7873M39.0821 63.7873C42.5656 67.594 43.21 69.7901 43.5645 73.7447" stroke="white" stroke-width="3"/>
<circle cx="38.5" cy="44.5" r="15" stroke="white" stroke-width="3"/>
<ellipse cx="39" cy="21.5" rx="2" ry="1.5" fill="white"/>
<path d="M39.0892 18C38.5131 14.2802 43.8328 14.7752 45.9069 11.4903C51.0826 3.29315 36.3251 -3.36912 34 8.23494" stroke="white" stroke-width="3"/>
</svg>