<svg width="80" height="74" viewBox="0 0 80 74" fill="none" xmlns="http://www.w3.org/2000/svg">
<path d="M52.1692 37.1334L52.1616 37.1193L52.1537 37.1054L47.2266 28.4728C46.5161 27.176 45.0711 26.8378 43.9396 27.2026L43.8863 27.2198L43.8344 27.2409L38.4727 29.423C37.531 28.7521 36.5357 28.153 35.4635 27.6478L34.6539 21.8599L34.6514 21.842L34.6485 21.8242C34.4302 20.4975 33.309 19.5 31.9347 19.5H22.0653C20.6529 19.5 19.5891 20.5365 19.3772 21.8242L19.3743 21.842L19.3718 21.8599L18.5621 27.6488C17.4872 28.1574 16.4849 28.7648 15.5554 29.424L10.1913 27.2409L10.168 27.2314L10.1444 27.2227C8.92066 26.7718 7.48295 27.223 6.79817 28.4746L1.89606 37.1083L1.89393 37.1121C1.26929 38.2197 1.4101 39.7587 2.60447 40.6346L7.11761 44.1938C7.04508 44.7778 6.99497 45.3946 6.99497 46C6.99497 46.5769 7.01929 47.1898 7.07873 47.7964L2.52904 51.3844C1.46291 52.2246 1.218 53.7378 1.83076 54.8666L1.8384 54.8807L1.84633 54.8946L6.77336 63.527C7.48383 64.824 8.92885 65.1622 10.0604 64.7974L10.1137 64.7802L10.1656 64.7591L15.5273 62.577C16.469 63.2479 17.4643 63.847 18.5365 64.3522L19.3461 70.1401L19.3528 70.1875L19.3624 70.2344C19.6152 71.4637 20.6456 72.5 22.0653 72.5H31.9347C33.2936 72.5 34.4522 71.51 34.6296 70.1302L35.4377 64.353C36.5082 63.8508 37.5132 63.2534 38.4527 62.5793L43.8087 64.7591L43.832 64.7686L43.8556 64.7773C45.0787 65.228 46.5156 64.7774 47.2008 63.5273L52.128 54.8946L52.1372 54.8784L52.146 54.8621C52.7707 53.7016 52.5535 52.2284 51.4364 51.3773L46.9307 47.7886C46.9804 47.2085 47.005 46.6148 47.005 46C47.005 45.4069 46.9808 44.8018 46.9218 44.2032L51.471 40.6156C51.4711 40.6155 51.4712 40.6154 51.4714 40.6153C52.5372 39.7751 52.7819 38.2621 52.1692 37.1334ZM27 53.875C22.7581 53.875 19.2475 50.3465 19.2475 46C19.2475 41.6535 22.7581 38.125 27 38.125C31.2419 38.125 34.7525 41.6535 34.7525 46C34.7525 50.3465 31.2419 53.875 27 53.875Z" stroke="white" stroke-width="3"/>
<path d="M78.8043 9.94742L78.7992 9.93804L78.794 9.92878L76.3315 5.61443C75.9092 4.84566 75.0532 4.65053 74.3931 4.86334L74.3576 4.8748L74.323 4.88888L71.7685 5.92851C71.3565 5.64247 70.923 5.38268 70.4608 5.15657L70.0745 2.39532L70.0729 2.38341L70.0709 2.37155C69.9426 1.59119 69.2807 1 68.4673 1H63.5327C62.6939 1 62.066 1.61721 61.9419 2.37155L61.94 2.38341L61.9383 2.39532L61.552 5.15734C61.0886 5.38503 60.6533 5.64732 60.2458 5.92913L57.6899 4.88888L57.6744 4.88256L57.6586 4.87677C56.9371 4.61093 56.0859 4.8769 55.6807 5.61554L53.2306 9.93073L53.2306 9.93073L53.2292 9.93325C52.8642 10.5804 52.941 11.4932 53.6508 12.0163L55.7943 13.7067C55.7661 13.9645 55.7475 14.2336 55.7475 14.5C55.7475 14.7517 55.7565 15.0181 55.7783 15.2857L53.6098 16.9958C53.6097 16.9959 53.6096 16.996 53.6095 16.996C52.9761 17.4954 52.8343 18.3869 53.1957 19.0526L53.2008 19.062L53.206 19.0712L55.6685 23.3856C56.0908 24.1543 56.9468 24.3495 57.6069 24.1367L57.6424 24.1252L57.677 24.1111L60.2315 23.0715C60.6435 23.3575 61.077 23.6173 61.5392 23.8434L61.9255 26.6047L61.9299 26.6363L61.9363 26.6675C62.0834 27.3829 62.689 28 63.5327 28H68.4673C69.2704 28 69.9571 27.4139 70.0626 26.5983L70.4478 23.8441C70.9094 23.6195 71.3464 23.3604 71.7589 23.0728L74.3101 24.1111L74.3256 24.1174L74.3414 24.1232C75.0625 24.3889 75.9131 24.1234 76.3186 23.3857L78.7811 19.0712L78.7873 19.0604L78.7931 19.0495C79.1582 18.3714 79.0348 17.4981 78.3719 16.9914L76.225 15.2815C76.2434 15.0269 76.2525 14.7671 76.2525 14.5C76.2525 14.2418 76.2435 13.9778 76.222 13.7141L78.3902 12.0042C78.3903 12.0041 78.3904 12.004 78.3905 12.004C79.0239 11.5046 79.1657 10.6131 78.8043 9.94742ZM66 18.1875C64.0202 18.1875 62.3737 16.5383 62.3737 14.5C62.3737 12.4617 64.0202 10.8125 66 10.8125C67.9798 10.8125 69.6263 12.4617 69.6263 14.5C69.6263 16.5383 67.9798 18.1875 66 18.1875Z" stroke="white" stroke-width="2"/>
</svg>