<svg width="66" height="66" viewBox="0 0 66 66" fill="none" xmlns="http://www.w3.org/2000/svg">
<path d="M33 66C44.2257 66 54.1423 60.3948 60.1036 51.8305C55.1253 53.8212 52.3342 54.8733 47.3559 51.8305C47.2595 53.8339 46.6062 55.0137 44.1864 57.2373L43.2542 60.4068C41.4628 61.1885 40.4912 61.1982 38.9661 60.4068C37.2559 62.6329 36.3657 63.8857 33 66Z" fill="white"/>
<path fill-rule="evenodd" clip-rule="evenodd" d="M1.28086 42.1356C0.446804 39.2345 0 36.1694 0 33C0 18.2169 9.72056 5.70421 23.1186 1.5049C26.9766 12.4844 21.5449 17.0801 15.0224 22.5987C9.66109 27.1348 3.56281 32.2945 1.28086 42.1356Z" fill="white"/>
<path d="M66 33C66 23.4992 61.9851 14.9362 55.5593 8.91506C46.9996 15.3114 41.7059 17.4304 30.2034 15.1017C33.2559 19.4725 35.523 21.6529 40.9791 22.3859C41.6818 22.4803 42.4373 22.5507 43.2542 22.5987C45.65 28.8727 48.2186 32.6882 54.8732 35.1672C57.6606 36.2055 61.1648 37.0093 65.6734 37.661C65.8887 36.1383 66 34.5821 66 33Z" fill="white"/>
<path d="M17.8983 33C11.4861 35.4471 9.0579 37.727 7.08475 43.6271C7.2541 43.9659 7.4219 44.2981 7.58819 44.6239C11.9476 53.1641 15.2699 57.2722 18.3318 58.9075C21.7921 60.7555 24.9198 59.4455 28.836 57.8052C29.2811 57.6188 29.7363 57.4281 30.2034 57.2373C26.2362 54.9954 25.397 49.4493 24.6069 44.2275C23.727 38.4127 22.908 33 17.8983 33Z" fill="white"/>
</svg>