<svg width="107" height="62" viewBox="0 0 107 62" fill="none" xmlns="http://www.w3.org/2000/svg">
<path fill-rule="evenodd" clip-rule="evenodd" d="M81.1128 38.0567L81.1148 38.0586C81.2118 38.1478 81.3064 38.2348 81.3986 38.3194L106.514 61.3786H87.1956L75.3057 50.4862V61.3786H34.2299V42.0823C14.445 36.626 0 19.8182 0 0H13.6919C13.6919 17.2469 29.0269 31.2952 47.8533 31.3579H65.2421C73.8321 31.3579 78.4042 35.5646 81.1128 38.0567ZM68.4596 13.5432C68.4596 20.4706 62.3295 26.0864 54.7676 26.0864C47.2058 26.0864 41.0757 20.4706 41.0757 13.5432C41.0757 6.61579 47.2058 1 54.7676 1C62.3295 1 68.4596 6.61579 68.4596 13.5432Z" fill="#6C8693"/>
</svg>