<svg width="55" height="109" viewBox="0 0 55 109" fill="none" xmlns="http://www.w3.org/2000/svg">
<path d="M0 108H1.98749C11.5011 108 19.2134 100.288 19.2134 90.7741V90.7741C19.2134 83.8596 23.4728 77.7679 29.4194 74.2397C64.3557 53.5118 61.0149 17.4777 25.9765 3.33493C21.5852 1.56245 16.8097 1 12.0742 1H0M19.2134 22.4734L14.1999 24.1496C10.934 25.2415 10.578 29.7193 13.6305 31.3134L14.5014 31.7683C17.5604 33.3659 16.8106 37.9406 13.4016 38.4781V38.4781C10.3443 38.9601 9.29786 42.8323 11.6961 44.7887L13.6119 46.3515C16.16 48.4302 15.5906 52.4715 12.5674 53.7652L11.721 54.1275C8.97317 55.3034 8.55282 59.0245 10.9691 60.7838V60.7838C13.3006 62.4814 13.0087 66.0449 10.4319 67.3404L5.48955 69.825" stroke="white" stroke-width="2" stroke-linejoin="round"/>
</svg>