<svg width="50" height="107" viewBox="0 0 50 107" fill="none" xmlns="http://www.w3.org/2000/svg">
<path fill-rule="evenodd" clip-rule="evenodd" d="M0.352953 1.52459L11.3882 10.8941C14.2958 13.3628 18.1548 14.4024 21.9091 13.7282C27.4667 12.7302 32.8514 16.1945 34.2468 21.6659L34.8239 23.9288C35.7678 27.6296 38.2487 30.7504 41.6414 32.5045C46.8137 35.1787 49.1315 41.327 47.0118 46.7502L46.2499 48.6993C44.9403 52.05 44.9868 55.7789 46.3796 59.0959L47.0507 60.6939C49.1054 65.5872 46.9823 71.2336 42.2124 73.5608C38.4904 75.3768 35.967 78.9828 35.536 83.1017L35.4526 83.899C34.7792 90.3343 28.9119 94.9341 22.5018 94.0521L21.793 93.9545C18.0797 93.4436 14.3155 94.4274 11.3271 96.6898L0.396581 104.965L1.60379 106.56L12.5343 98.2844C15.1002 96.3418 18.3321 95.4972 21.5203 95.9359L22.2292 96.0334C29.7587 97.0695 36.6507 91.6663 37.4417 84.1071L37.5252 83.3099C37.8844 79.8771 39.9874 76.8718 43.0894 75.3583C48.8126 72.566 51.3601 65.791 48.8947 59.9195L48.2237 58.3216C47.0321 55.484 46.9923 52.2939 48.1127 49.4274L48.8746 47.4782C51.367 41.1016 48.6416 33.8723 42.56 30.7279C39.6746 29.2361 37.5646 26.582 36.7619 23.4345L36.1847 21.1716C34.5302 14.6841 28.1454 10.5763 21.5556 11.7597C18.3894 12.3283 15.1348 11.4515 12.6826 9.36952L1.64741 0L0.352953 1.52459ZM14.0325 35.9873L2.95517 47.3202C2.34284 47.9467 2 48.7879 2 49.6639C2 52.6695 5.64981 54.157 7.75074 52.0076L18.8281 40.6747C20.1225 39.3504 20.0983 37.2276 18.774 35.9332C17.4498 34.6388 15.3269 34.663 14.0325 35.9873ZM1.52492 45.9222L12.6023 34.5893C14.6688 32.4751 18.0578 32.4364 20.172 34.5029C22.2862 36.5694 22.3248 39.9585 20.2583 42.0727L9.18099 53.4056C5.82688 56.8371 -2.13247e-07 54.4624 0 49.6639C-1.13236e-07 48.2654 0.547342 46.9223 1.52492 45.9222ZM22.0002 69.7623C22.0002 73.076 19.3139 75.7623 16.0002 75.7623C12.6865 75.7623 10.0002 73.076 10.0002 69.7623C10.0002 66.4486 12.6865 63.7623 16.0002 63.7623C19.3139 63.7623 22.0002 66.4486 22.0002 69.7623ZM24.0002 69.7623C24.0002 74.1806 20.4185 77.7623 16.0002 77.7623C11.5819 77.7623 8.00019 74.1806 8.00019 69.7623C8.00019 65.344 11.5819 61.7623 16.0002 61.7623C20.4185 61.7623 24.0002 65.344 24.0002 69.7623Z" fill="white"/>
</svg>