<svg width="63" height="104" viewBox="0 0 63 104" fill="none" xmlns="http://www.w3.org/2000/svg">
<path fill-rule="evenodd" clip-rule="evenodd" d="M40.4371 0.608783C27.8697 -1.02067 19.8459 0.519934 13.0582 6.4557C9.45531 5.4482 4.12007 4.45396 0.310361 3.8981L0.0216033 5.87714C3.98927 6.45605 9.57041 7.50826 13.0293 8.52806L13.5682 8.68696L13.9843 8.30926C20.01 2.83852 27.0804 1.10218 38.744 2.41787L31.4665 16.1577L31.0558 16.933L31.7711 17.4411C42.6696 25.1818 49.1167 35.7671 50.9625 46.8384L51.0734 47.5039L51.7321 47.6502C58.4969 49.1526 61.4991 56.3171 60.4322 63.9816C59.3739 71.5843 54.3403 79.0447 45.7566 80.6688L45.289 80.7573L45.0628 81.1761C37.8852 94.4609 24.2725 97.9428 0 102.028L0.331964 104.001C24.1633 99.9893 38.8212 96.4743 46.5956 82.5398C55.9675 80.5344 61.2918 72.3131 62.4131 64.2573C63.5139 56.3494 60.5917 47.9953 52.822 45.8606C50.7883 34.7178 44.3126 24.1568 33.6413 16.3246L41.1922 2.06854L41.8672 0.794204L40.4371 0.608783ZM33.3788 38.9256C33.3788 42.7477 30.2803 45.8461 26.4582 45.8461C22.6361 45.8461 19.5376 42.7477 19.5376 38.9256C19.5376 35.1034 22.6361 32.005 26.4582 32.005C30.2803 32.005 33.3788 35.1034 33.3788 38.9256ZM35.3788 38.9256C35.3788 43.8523 31.3849 47.8461 26.4582 47.8461C21.5315 47.8461 17.5376 43.8523 17.5376 38.9256C17.5376 33.9989 21.5315 30.005 26.4582 30.005C31.3849 30.005 35.3788 33.9989 35.3788 38.9256Z" fill="white"/>
</svg>