<svg width="69" height="170" viewBox="0 0 69 170" fill="none" xmlns="http://www.w3.org/2000/svg">
<path d="M1 34.3333V34.3748C5.07664 31.4066 9.5353 28.7681 14.376 26.8125L17.5477 4.5875C17.9001 2.4875 19.5741 1 21.6886 1H55.5203C57.6348 1 59.3969 2.4875 59.7493 4.5875L62.921 26.8125C64.6706 27.5193 66.3602 28.3054 68 29.1641M1 135.694C5.11602 138.699 9.4754 141.243 14.2879 143.188L17.4596 165.413C17.9001 167.513 19.5741 169 21.6886 169H55.5203C57.6348 169 59.3969 167.513 59.6612 165.413L62.8329 143.188C64.6066 142.471 66.3289 141.673 68 140.8M58.552 60.5556C53.0932 56.1487 46.1452 53.5 38.6045 53.5C21.1599 53.5 6.88717 67.675 6.88717 85C6.88717 102.325 21.1599 116.5 38.6045 116.5C46.1452 116.5 53.0932 113.851 58.552 109.444" stroke="white"/>
</svg>