<svg width="60" height="170" viewBox="0 0 60 170" fill="none" xmlns="http://www.w3.org/2000/svg">
<path d="M60 116.5C42.8219 116.5 28.767 102.325 28.767 85C28.767 67.675 42.8219 53.5 60 53.5M1 26.5251C1.11788 26.5574 1.23511 26.5949 1.35137 26.6375L22.0866 35.0375C26.3378 31.8 31.0227 28.9125 36.1415 26.8125L39.2648 4.5875C39.6118 2.4875 41.2602 1 43.3424 1H60M1 143.439C1.08866 143.416 1.17691 143.391 1.26462 143.363L21.9999 134.962C26.3378 138.287 30.936 141.088 36.0547 143.188L39.178 165.413C39.6118 167.513 41.2602 169 43.3424 169H60" stroke="white"/>
</svg>