<svg width="68" height="169" viewBox="0 0 68 169" fill="none" xmlns="http://www.w3.org/2000/svg">
<path d="M1 1H2.78211C4.8598 1 6.59121 2.47864 6.93749 4.56614L10.054 26.6589C15.1617 28.7464 19.7499 31.5297 24.0784 34.8349L44.7687 26.4849C46.6733 25.876 48.8375 26.4849 49.8764 28.3984L66.4979 57.2755C67.4502 59.0151 67.0173 61.3635 65.459 62.5812L47.8853 76.324C48.3181 78.9333 48.4913 81.7167 48.4913 84.5C48.4913 87.3703 48.3181 90.0667 47.9718 92.676L65.3725 106.419C67.0173 107.636 67.4502 109.811 66.4113 111.724L49.7898 140.602C48.751 142.515 46.5867 143.211 44.6822 142.515L23.9919 134.165C19.7499 137.47 15.0751 140.254 9.96745 142.341L6.85093 164.434C6.59121 166.521 4.8598 168 2.78211 168H1M1 56.9898C10.7044 62.3111 17.3259 72.6663 17.3259 84.5C17.3259 96.3337 10.7044 106.689 1 112.01" stroke="white"/>
</svg>