<svg width="39" height="27" viewBox="0 0 39 27" fill="none" xmlns="http://www.w3.org/2000/svg">
<path fill-rule="evenodd" clip-rule="evenodd" d="M28.7825 27C28.7825 27 27.5805 25.6179 26.5788 24.3965C30.9529 23.2072 32.6224 20.5715 32.6224 20.5715C31.2534 21.4393 29.9512 22.05 28.7825 22.4679C27.113 23.1429 25.5103 23.5929 23.9409 23.85C20.7354 24.4286 17.7971 24.2679 15.2928 23.8179C13.3896 23.4643 11.7534 22.95 10.3844 22.4358C9.61644 22.1465 8.78168 21.7929 7.94692 21.3429C7.84675 21.2786 7.74658 21.2465 7.6464 21.1822C7.57962 21.1501 7.54623 21.1179 7.51284 21.0858C6.91182 20.7643 6.57791 20.5393 6.57791 20.5393C6.57791 20.5393 8.18065 23.1108 12.4212 24.3322C11.4195 25.5536 10.1841 27 10.1841 27C2.80479 26.775 0 22.1143 0 22.1143C0 11.7644 4.80822 3.37523 4.80822 3.37523C9.61644 -0.09616 14.1909 0.000267111 14.1909 0.000267111L14.5248 0.385977C8.51456 2.05739 5.74315 4.59665 5.74315 4.59665C5.74315 4.59665 6.47774 4.21094 7.71318 3.66452C11.286 2.15382 14.1241 1.73596 15.2928 1.63954C15.4931 1.60739 15.6601 1.57525 15.8604 1.57525C17.8973 1.31811 20.2012 1.25383 22.6053 1.51097C25.7774 1.86453 29.1832 2.76452 32.6558 4.59665C32.6558 4.59665 30.018 2.18596 24.3416 0.514547L24.8091 0.000267111C24.8091 0.000267111 29.3836 -0.09616 34.1918 3.37523C34.1918 3.37523 39 11.7644 39 22.1143C39 22.1143 36.1618 26.775 28.7825 27ZM9.85017 15.5573C9.85017 13.5966 11.3527 11.9894 13.256 11.9894C15.1592 11.9894 16.6952 13.5966 16.6618 15.5573C16.6618 17.5179 15.1592 19.1251 13.256 19.1251C11.3861 19.1251 9.85017 17.5179 9.85017 15.5573ZM22.0377 15.5573C22.0377 13.5966 23.5402 11.9894 25.4435 11.9894C27.3467 11.9894 28.8493 13.5966 28.8493 15.5573C28.8493 17.5179 27.3467 19.1251 25.4435 19.1251C23.5736 19.1251 22.0377 17.5179 22.0377 15.5573Z" fill="#76919E"/>
</svg>