<svg width="24" height="22" viewBox="0 0 24 22" fill="none" xmlns="http://www.w3.org/2000/svg">
<path d="M10.9328 19.6777L10.9314 19.6763C7.82127 16.8587 5.32103 14.5911 3.58627 12.4721C1.86297 10.3671 1 8.53116 1 6.59401C1 3.4545 3.45543 1 6.6 1C8.38555 1 10.1146 1.83534 11.2389 3.1544L12 4.04731L12.7611 3.1544C13.8854 1.83534 15.6144 1 17.4 1C20.5446 1 23 3.4545 23 6.59401C23 8.53118 22.137 10.3672 20.4135 12.4739C18.6788 14.5943 16.1789 16.8644 13.0692 19.6878C13.0688 19.6882 13.0683 19.6886 13.0678 19.6891L12.0026 20.6506L10.9328 19.6777Z" fill="#A3BCC9" stroke="#A3BCC9" stroke-width="2"/>
</svg>