<svg width="106" height="93" viewBox="0 0 106 93" fill="none" xmlns="http://www.w3.org/2000/svg">
    <path d="M60.5175 90.3045C75.8771 90.3045 89.4454 82.6352 97.602 70.9171C90.7904 73.6409 86.9715 75.0804 80.16 70.9171C80.028 73.6583 79.1342 75.2725 75.8233 78.3149L74.5478 82.6516C72.0967 83.7211 70.7674 83.7345 68.6806 82.6516C66.3407 85.6975 65.1226 87.4116 60.5175 90.3045Z" fill="#6C8693"/>
    <path fill-rule="evenodd" clip-rule="evenodd" d="M17.1178 57.652C15.9766 53.6825 15.3652 49.4888 15.3652 45.1522C15.3652 24.9253 28.6654 7.80478 46.9973 2.05908C52.2759 17.0817 44.844 23.3698 35.9196 30.9206C28.584 37.1272 20.24 44.187 17.1178 57.652ZM25.0589 59.6928C27.7587 51.6199 31.0811 48.5005 39.8546 45.1522C46.7091 45.1522 47.8297 52.5581 49.0336 60.5143C50.1147 67.659 51.2629 75.2475 56.691 78.3149C56.0519 78.576 55.4291 78.8369 54.8201 79.0919C49.4617 81.3363 45.1822 83.1287 40.4477 80.6001C48.2522 69.9523 36.9305 55.261 25.7478 61.0566C25.5202 60.6109 25.2907 60.1563 25.0589 59.6928Z" fill="#6C8693"/>
    <path fill-rule="evenodd" clip-rule="evenodd" d="M91.3843 12.198C100.176 20.4365 105.67 32.1528 105.67 45.1522C105.67 47.317 105.517 49.4462 105.223 51.5297C99.0539 50.6379 94.2593 49.5381 90.4455 48.1175H92.5958V36.3914H83.2958V27.4957H71.4349V30.6295C63.9695 29.6266 60.8676 26.6432 56.691 20.6629C72.4293 23.8491 79.6724 20.9498 91.3843 12.198Z" fill="#6C8693"/>
    <path d="M20.6218 93.0002C-18.437 77.33 7.62793 49.5232 20.6218 66.4992C33.6156 49.5232 59.6805 77.33 20.6218 93.0002Z" fill="#6C8693"/>
    <path fill-rule="evenodd" clip-rule="evenodd" d="M81.3004 29.1138H73.1618V38.3882H63.8872V46.5268H73.1618V55.8008H81.3004V46.5268H90.5742V38.3882H81.3004V29.1138Z" fill="#6C8693"/>
</svg>
