<svg width="45" height="30" viewBox="0 0 45 30" fill="none" xmlns="http://www.w3.org/2000/svg">
    <path d="M30.2507 4.53581C30.2507 4.9141 29.905 5.66038 28.4228 6.40147C27.0304 7.0977 25.0017 7.57162 22.679 7.57162C20.3564 7.57162 18.3277 7.0977 16.9353 6.40147C15.4531 5.66038 15.1074 4.9141 15.1074 4.53581C15.1074 4.15752 15.4531 3.41124 16.9353 2.67015C18.3277 1.97392 20.3564 1.5 22.679 1.5C25.0017 1.5 27.0304 1.97392 28.4228 2.67015C29.905 3.41124 30.2507 4.15752 30.2507 4.53581Z" stroke="#1E4257" stroke-width="3"/>
    <path d="M25.3848 28.0951C25.3849 6.91718 33.5156 13.1324 44.4829 4.61523C45.1758 7.58762 45.6176 9.44933 42.7813 11.2909C43.3485 14.974 41.8358 18.6571 38.8104 19.5779C38.9127 24.372 38.6213 25.3328 33.3267 26.4837C32.3813 30.8574 27.654 30.8574 25.3848 28.0951Z" fill="#1E4257"/>
    <path d="M19.6152 28.0951C19.6151 6.91718 11.4844 13.1324 0.517115 4.61523C-0.1758 7.58762 -0.617611 9.44933 2.21874 11.2909C1.65147 14.974 3.1642 18.6571 6.18964 19.5779C6.08733 24.372 6.37873 25.3328 11.6733 26.4837C12.6187 30.8574 17.346 30.8574 19.6152 28.0951Z" fill="#1E4257"/>
</svg>
