<svg width="32" height="25" viewBox="0 0 32 25" fill="none" xmlns="http://www.w3.org/2000/svg">
    <path d="M32 3.04486C30.8571 3.52563 29.551 3.84615 28.2449 4.00641C29.551 3.20513 30.6939 1.92308 31.1837 0.480774C29.8776 1.28206 28.5714 1.76282 26.9388 2.08334C25.7959 0.801287 24 0 22.2041 0C18.6122 0 15.6735 2.88461 15.6735 6.41025C15.6735 6.89102 15.6735 7.37178 15.8367 7.85255C10.449 7.53204 5.55101 4.96794 2.28571 1.12179C1.79591 2.08333 1.46938 3.20512 1.46938 4.32692C1.46938 6.57051 2.61224 8.49359 4.40816 9.61538C3.2653 9.61538 2.28571 9.29487 1.46938 8.8141C1.46938 11.859 3.75509 14.5833 6.69387 15.0641C6.20407 15.2243 5.55102 15.2244 4.89796 15.2244C4.40817 15.2244 4.08163 15.2243 3.59183 15.0641C4.40816 17.6282 6.85715 19.5513 9.79592 19.5513C7.51021 21.3141 4.7347 22.2756 1.63265 22.2756C1.14286 22.2756 0.653062 22.2756 0 22.1154C2.93878 23.8782 6.36734 25 10.1224 25C22.2041 25 28.7347 15.2243 28.7347 6.73076V5.92948C30.0408 5.44871 31.1837 4.32691 32 3.04486Z" fill="white"/>
</svg>
