<svg width="25" height="25" viewBox="0 0 25 25" fill="none" xmlns="http://www.w3.org/2000/svg">
    <path d="M20.5538 8.1119C20.5538 12.0335 17.3518 15.2238 13.3881 15.2238C12.4485 15.2238 11.0936 14.8883 9.64217 14.296C8.20798 13.7107 6.78004 12.9159 5.70482 12.0847C5.16693 11.6689 4.74175 11.2627 4.44901 10.8903C4.14808 10.5075 4.04091 10.229 4.02152 10.0612C4.0086 9.94931 4.02376 9.85133 4.1655 9.70955C4.34535 9.52964 4.73345 9.28794 5.49287 9.07465C6.3572 8.83189 7.04089 8.59824 7.56914 8.36762C8.08104 8.14413 8.52198 7.89203 8.83309 7.57894C9.1733 7.23656 9.42359 6.7417 9.3004 6.15792C9.1976 5.67078 8.87046 5.33807 8.65462 5.15067C8.41836 4.94553 8.14018 4.7684 7.91219 4.62889C7.82529 4.57571 7.7462 4.52822 7.67252 4.48398C7.55339 4.41246 7.4484 4.34943 7.3474 4.28455C8.62071 2.30932 10.8497 1 13.3881 1C16.1145 1 18.4839 2.51037 19.6957 4.73395C20.2429 5.73804 20.5538 6.88756 20.5538 8.1119ZM3.71557 18.5163C3.99283 18.3619 4.42386 18.1959 5.0784 18.0386C7.45574 19.2488 10.7189 19.6483 13.7475 19.5673C16.6891 19.4885 19.6204 18.95 21.5579 18.0878C22.7101 18.6937 23.2196 19.5775 23.4977 20.6649C23.6596 21.2981 23.7393 21.995 23.8016 22.7607C23.8177 22.9596 23.8328 23.166 23.8483 23.3769C23.8632 23.5814 23.8785 23.79 23.8953 24H3.62231C3.84759 23.685 4.00729 23.3485 4.10202 22.9879C4.39226 21.8829 3.96692 20.8316 3.69666 20.1636C3.68732 20.1405 3.67816 20.1179 3.66923 20.0957C3.51372 19.71 3.40498 19.4381 3.34937 19.1956C3.29715 18.9679 3.32049 18.8779 3.33498 18.8422C3.34606 18.8149 3.40264 18.6906 3.71557 18.5163Z" fill="#1C2529" stroke="#1C2529" stroke-width="2"/>
</svg>