<svg width="25" height="25" viewBox="0 0 25 25" fill="none" xmlns="http://www.w3.org/2000/svg">
<path d="M20.0538 8.1119C20.0538 12.0335 16.8518 15.2238 12.8881 15.2238C11.9485 15.2238 10.5936 14.8883 9.14217 14.296C7.70798 13.7107 6.28004 12.9159 5.20482 12.0847C4.66693 11.6689 4.24175 11.2627 3.94901 10.8903C3.64808 10.5075 3.54091 10.229 3.52152 10.0612C3.5086 9.94931 3.52376 9.85133 3.6655 9.70955C3.84535 9.52964 4.23345 9.28794 4.99287 9.07465C5.8572 8.83189 6.54089 8.59824 7.06914 8.36762C7.58104 8.14413 8.02198 7.89203 8.33309 7.57894C8.6733 7.23656 8.92359 6.7417 8.8004 6.15792C8.6976 5.67078 8.37046 5.33807 8.15462 5.15067C7.91836 4.94553 7.64018 4.7684 7.41219 4.62889C7.32529 4.57571 7.2462 4.52822 7.17252 4.48398C7.05339 4.41246 6.9484 4.34943 6.8474 4.28455C8.12071 2.30932 10.3497 1 12.8881 1C15.6145 1 17.9839 2.51037 19.1957 4.73395C19.7429 5.73804 20.0538 6.88756 20.0538 8.1119ZM3.21557 18.5163C3.49283 18.3619 3.92386 18.1959 4.5784 18.0386C6.95574 19.2488 10.2189 19.6483 13.2475 19.5673C16.1891 19.4885 19.1204 18.95 21.0579 18.0878C22.2101 18.6937 22.7196 19.5775 22.9977 20.6649C23.1596 21.2981 23.2393 21.995 23.3016 22.7607C23.3177 22.9596 23.3328 23.166 23.3483 23.3769C23.3632 23.5814 23.3785 23.79 23.3953 24H3.12231C3.34759 23.685 3.50729 23.3485 3.60202 22.9879C3.89226 21.8829 3.46692 20.8316 3.19666 20.1636C3.18732 20.1405 3.17816 20.1179 3.16923 20.0957C3.01372 19.71 2.90498 19.4381 2.84937 19.1956C2.79715 18.9679 2.82049 18.8779 2.83498 18.8422C2.84606 18.8149 2.90264 18.6906 3.21557 18.5163Z" fill="white" stroke="white" stroke-width="2"/>
</svg>